<svg width="100" height="102" viewBox="0 0 100 102" fill="none" xmlns="http://www.w3.org/2000/svg">
<path d="M6.90252 92.7464C6.86275 92.3454 6.69206 92.0339 6.39045 91.8118C6.08884 91.5897 5.67951 91.4787 5.16246 91.4787C4.81114 91.4787 4.5145 91.5284 4.27255 91.6278C4.0306 91.724 3.84499 91.8582 3.71573 92.0305C3.58978 92.2029 3.52681 92.3984 3.52681 92.6172C3.52018 92.7995 3.5583 92.9586 3.64116 93.0945C3.72733 93.2304 3.84499 93.348 3.99414 93.4474C4.14329 93.5436 4.31564 93.6281 4.51119 93.701C4.70674 93.7706 4.91554 93.8303 5.13761 93.88L6.05238 94.0987C6.49651 94.1982 6.90418 94.3307 7.27539 94.4964C7.6466 94.6622 7.9681 94.866 8.23988 95.108C8.51166 95.3499 8.72212 95.6349 8.87127 95.9631C9.02373 96.2912 9.10162 96.6674 9.10494 97.0916C9.10162 97.7147 8.94253 98.255 8.62766 98.7124C8.31611 99.1664 7.86535 99.5194 7.27539 99.7713C6.68874 100.02 5.98112 100.144 5.15252 100.144C4.33055 100.144 3.61464 100.018 3.00479 99.7663C2.39826 99.5144 1.9243 99.1416 1.58292 98.6477C1.24485 98.1506 1.06753 97.5357 1.05096 96.8033H3.13406C3.15726 97.1446 3.25503 97.4297 3.42738 97.6584C3.60304 97.8838 3.83671 98.0545 4.12837 98.1705C4.42335 98.2831 4.75645 98.3395 5.12766 98.3395C5.49225 98.3395 5.80877 98.2865 6.07724 98.1804C6.34902 98.0743 6.55948 97.9268 6.70863 97.7379C6.85778 97.549 6.93235 97.3319 6.93235 97.0866C6.93235 96.858 6.86441 96.6657 6.72852 96.5099C6.59594 96.3542 6.40039 96.2216 6.14187 96.1122C5.88666 96.0028 5.57345 95.9034 5.20224 95.8139L4.09357 95.5355C3.23514 95.3267 2.55735 95.0002 2.06019 94.5561C1.56303 94.112 1.31611 93.5137 1.31942 92.7614C1.31611 92.1449 1.48017 91.6063 1.81161 91.1456C2.14637 90.6849 2.60541 90.3253 3.18874 90.0668C3.77208 89.8082 4.43496 89.679 5.17738 89.679C5.93306 89.679 6.59263 89.8082 7.15607 90.0668C7.72283 90.3253 8.16365 90.6849 8.47852 91.1456C8.79338 91.6063 8.95579 92.1399 8.96573 92.7464H6.90252ZM16.842 89.8182H18.9947V96.4304C18.9947 97.1728 18.8174 97.8224 18.4627 98.3793C18.1114 98.9361 17.6192 99.3703 16.9862 99.6818C16.3531 99.9901 15.6156 100.144 14.7738 100.144C13.9286 100.144 13.1895 99.9901 12.5565 99.6818C11.9234 99.3703 11.4312 98.9361 11.0799 98.3793C10.7286 97.8224 10.5529 97.1728 10.5529 96.4304V89.8182H12.7056V96.2464C12.7056 96.6342 12.7901 96.9789 12.9592 97.2805C13.1315 97.5821 13.3735 97.8191 13.685 97.9915C13.9966 98.1638 14.3595 98.25 14.7738 98.25C15.1914 98.25 15.5543 98.1638 15.8626 97.9915C16.1741 97.8191 16.4144 97.5821 16.5835 97.2805C16.7558 96.9789 16.842 96.6342 16.842 96.2464V89.8182ZM20.7658 100V89.8182H24.8425C25.5916 89.8182 26.2163 89.9292 26.7168 90.1513C27.2173 90.3733 27.5935 90.6816 27.8453 91.076C28.0972 91.4671 28.2232 91.9179 28.2232 92.4283C28.2232 92.826 28.1436 93.1757 27.9846 93.4773C27.8255 93.7756 27.6067 94.0208 27.3283 94.2131C27.0532 94.402 26.7383 94.5362 26.3837 94.6158V94.7152C26.7715 94.7318 27.1344 94.8411 27.4725 95.0433C27.8139 95.2455 28.0906 95.5289 28.3027 95.8935C28.5149 96.2547 28.6209 96.6856 28.6209 97.1861C28.6209 97.7263 28.4867 98.2086 28.2182 98.6328C27.9531 99.0537 27.5603 99.3868 27.04 99.6321C26.5196 99.8774 25.8783 100 25.1159 100H20.7658ZM22.9185 98.2401H24.6735C25.2734 98.2401 25.7109 98.1257 25.986 97.897C26.2611 97.665 26.3986 97.3568 26.3986 96.9723C26.3986 96.6906 26.3307 96.442 26.1948 96.2266C26.0589 96.0111 25.865 95.8421 25.6131 95.7195C25.3645 95.5968 25.0679 95.5355 24.7232 95.5355H22.9185V98.2401ZM22.9185 94.0788H24.5144C24.8094 94.0788 25.0712 94.0275 25.2999 93.9247C25.5319 93.8187 25.7142 93.6695 25.8468 93.4773C25.9827 93.285 26.0506 93.0547 26.0506 92.7862C26.0506 92.4183 25.9197 92.1217 25.6578 91.8963C25.3993 91.6709 25.0314 91.5582 24.5542 91.5582H22.9185V94.0788ZM30.0217 100V89.8182H32.1744V98.2251H36.5394V100H30.0217ZM40.1177 89.8182V100H37.965V89.8182H40.1177ZM41.8888 89.8182H44.5437L47.3477 96.6591H47.467L50.271 89.8182H52.9258V100H50.8377V93.3729H50.7532L48.1183 99.9503H46.6964L44.0614 93.348H43.9769V100H41.8888V89.8182ZM56.4544 100H54.1475L57.6625 89.8182H60.4366L63.9466 100H61.6397L59.0893 92.1449H59.0098L56.4544 100ZM56.3102 95.9979H61.7591V97.6783H56.3102V95.9979ZM73.6772 93.3828H71.4996C71.4599 93.1011 71.3787 92.8509 71.256 92.6321C71.1334 92.41 70.976 92.2211 70.7837 92.0653C70.5915 91.9096 70.3694 91.7902 70.1175 91.7074C69.869 91.6245 69.5988 91.5831 69.3072 91.5831C68.7802 91.5831 68.3211 91.714 67.93 91.9759C67.5389 92.2344 67.2357 92.6122 67.0202 93.1094C66.8048 93.6032 66.6971 94.2031 66.6971 94.9091C66.6971 95.6349 66.8048 96.2448 67.0202 96.7386C67.239 97.2325 67.5439 97.6054 67.935 97.8572C68.3261 98.1091 68.7785 98.2351 69.2923 98.2351C69.5806 98.2351 69.8474 98.197 70.0927 98.1207C70.3413 98.0445 70.5617 97.9335 70.7539 97.7876C70.9461 97.6385 71.1052 97.4579 71.2312 97.2457C71.3604 97.0336 71.4499 96.7917 71.4996 96.5199L73.6772 96.5298C73.6209 96.9972 73.48 97.4479 73.2546 97.8821C73.0326 98.313 72.7326 98.6991 72.3548 99.0405C71.9802 99.3786 71.5328 99.647 71.0124 99.8459C70.4954 100.041 69.9104 100.139 69.2575 100.139C68.3493 100.139 67.5373 99.9337 66.8214 99.5227C66.1088 99.1117 65.5453 98.5168 65.131 97.7379C64.7201 96.959 64.5146 96.0161 64.5146 94.9091C64.5146 93.7988 64.7234 92.8542 65.141 92.0753C65.5586 91.2964 66.1254 90.7031 66.8413 90.2955C67.5572 89.8845 68.3626 89.679 69.2575 89.679C69.8474 89.679 70.3943 89.7618 70.8981 89.9276C71.4052 90.0933 71.8543 90.3352 72.2454 90.6534C72.6365 90.9683 72.9547 91.3544 73.1999 91.8118C73.4485 92.2692 73.6076 92.7929 73.6772 93.3828ZM77.3736 89.8182V100H75.2209V89.8182H77.3736ZM88.5012 94.9091C88.5012 96.0194 88.2908 96.964 87.8699 97.7429C87.4522 98.5218 86.8822 99.1167 86.1596 99.5277C85.4404 99.9354 84.6317 100.139 83.7335 100.139C82.8287 100.139 82.0166 99.9337 81.2974 99.5227C80.5782 99.1117 80.0098 98.5168 79.5922 97.7379C79.1745 96.959 78.9657 96.0161 78.9657 94.9091C78.9657 93.7988 79.1745 92.8542 79.5922 92.0753C80.0098 91.2964 80.5782 90.7031 81.2974 90.2955C82.0166 89.8845 82.8287 89.679 83.7335 89.679C84.6317 89.679 85.4404 89.8845 86.1596 90.2955C86.8822 90.7031 87.4522 91.2964 87.8699 92.0753C88.2908 92.8542 88.5012 93.7988 88.5012 94.9091ZM86.3187 94.9091C86.3187 94.1899 86.211 93.5833 85.9956 93.0895C85.7834 92.5956 85.4835 92.2211 85.0957 91.9659C84.7079 91.7107 84.2538 91.5831 83.7335 91.5831C83.2131 91.5831 82.7591 91.7107 82.3713 91.9659C81.9835 92.2211 81.6819 92.5956 81.4664 93.0895C81.2543 93.5833 81.1483 94.1899 81.1483 94.9091C81.1483 95.6283 81.2543 96.2348 81.4664 96.7287C81.6819 97.2225 81.9835 97.5971 82.3713 97.8523C82.7591 98.1075 83.2131 98.2351 83.7335 98.2351C84.2538 98.2351 84.7079 98.1075 85.0957 97.8523C85.4835 97.5971 85.7834 97.2225 85.9956 96.7287C86.211 96.2348 86.3187 95.6283 86.3187 94.9091ZM82.9728 88.8338L84.0268 86.5717H85.9856L84.4693 88.8338H82.9728ZM98.6122 89.8182V100H96.7528L92.3232 93.5916H92.2486V100H90.0959V89.8182H91.9851L96.38 96.2216H96.4695V89.8182H98.6122Z" fill="#1C2D46"/>
<path d="M50 69.9253C69.33 69.9253 85 54.272 85 34.9627C85 15.6533 69.33 0 50 0C30.67 0 15 15.6533 15 34.9627C15 54.272 30.67 69.9253 50 69.9253Z" fill="#45ACB4"/>
<path d="M77.7174 35.4001C77.63 35.866 77.5425 36.332 77.4258 36.7834C76.3763 40.9772 72.9944 43.9624 68.6941 44.3992C67.4696 44.5303 66.216 44.4575 64.9769 44.4429C64.5687 44.4429 64.3792 44.5448 64.2335 44.9526C63.3297 47.7193 62.1489 50.3695 60.4142 52.7285C59.6708 53.7478 58.7815 54.6652 57.9506 55.6117C57.834 55.7428 57.6008 55.8302 57.4113 55.8302C51.0702 55.8447 44.7437 55.8447 38.4025 55.8302C38.1839 55.8302 37.9215 55.67 37.7611 55.5244C35.662 53.5003 34.1314 51.0976 32.9361 48.4619C31.1576 44.5448 30.1664 40.4239 29.5687 36.1718C28.9711 31.8616 28.7816 27.5222 29.0148 23.1682C29.0877 21.7121 29.248 20.2559 29.3792 18.7852C41.7262 18.7852 54.0439 18.7852 66.4346 18.7852C66.595 20.6636 66.7407 22.5275 66.8865 24.406C67.7028 24.4788 68.5337 24.4933 69.3355 24.639C73.009 25.3088 75.56 27.4057 76.9886 30.8423C77.3384 31.6868 77.4696 32.6042 77.7028 33.4925C77.7174 34.1186 77.7174 34.7594 77.7174 35.4001ZM65.8515 38.7347C65.6474 39.6958 65.4434 40.6132 65.2247 41.6616C66.5804 41.5888 67.9215 41.6907 69.1605 41.4286C72.178 40.7733 74.1022 38.8512 74.6999 35.8369C75.283 32.8518 74.2189 30.4054 71.7553 28.6143C70.3267 27.5804 68.6941 27.2455 66.8865 27.362C66.8865 28.3231 66.8865 29.2405 66.8865 30.1579C66.8865 30.1579 66.6824 33.143 66.5075 34.9487C66.4346 35.8952 65.8515 38.7347 65.8515 38.7347Z" fill="white"/>
<path d="M34.7148 43.8024C37.6594 39.3756 40.5749 35.0217 43.5049 30.624C45.2834 32.8957 47.018 35.1382 48.7965 37.4098C49.6711 36.3905 50.5312 35.3857 51.4058 34.3664C51.537 34.5266 58.432 43.6859 58.5486 43.8024C58.5632 43.8024 42.7032 43.8024 34.7148 43.8024Z" fill="#45ACB4"/>
<path d="M61.1266 32.6915C61.0975 34.337 59.7418 35.6475 58.08 35.6184C56.4473 35.5893 55.1354 34.2205 55.1645 32.575C55.1937 30.9587 56.5494 29.6481 58.182 29.6772C59.8147 29.6772 61.1412 31.046 61.1266 32.6915Z" fill="#45ACB4"/>
</svg>
