<svg width="70" height="102" viewBox="0 0 70 102" fill="none" xmlns="http://www.w3.org/2000/svg">
<path d="M25.8635 100H22.2541V89.8182H25.8933C26.9174 89.8182 27.7991 90.022 28.5382 90.4297C29.2773 90.834 29.8457 91.4157 30.2434 92.1747C30.6445 92.9337 30.845 93.8419 30.845 94.8991C30.845 95.9598 30.6445 96.8712 30.2434 97.6335C29.8457 98.3958 29.274 98.9808 28.5282 99.3885C27.7858 99.7962 26.8975 100 25.8635 100ZM24.4068 98.1555H25.774C26.4103 98.1555 26.9456 98.0429 27.3798 97.8175C27.8173 97.5888 28.1454 97.2358 28.3642 96.7585C28.5862 96.2779 28.6973 95.6581 28.6973 94.8991C28.6973 94.1468 28.5862 93.532 28.3642 93.0547C28.1454 92.5774 27.819 92.2261 27.3848 92.0007C26.9506 91.7753 26.4153 91.6626 25.7789 91.6626H24.4068V98.1555ZM31.587 91.593V89.8182H39.9492V91.593H36.832V100H34.7042V91.593H31.587ZM41.3263 100V89.8182H48.0678V91.593H43.479V94.0192H47.6204V95.794H43.479V100H41.3263Z" fill="#1C2D46"/>
<path d="M35 69.9253C54.33 69.9253 70 54.272 70 34.9627C70 15.6533 54.33 0 35 0C15.67 0 0 15.6533 0 34.9627C0 54.272 15.67 69.9253 35 69.9253Z" fill="#45ACB4"/>
<path d="M20.2031 47.9663C24.0369 42.2144 27.827 36.5499 31.6463 30.8271C33.9495 33.7832 36.2235 36.6955 38.5267 39.6515C39.6638 38.3119 40.7716 37.0304 41.9232 35.6908C42.0836 35.8946 51.0632 47.8207 51.209 47.9663C51.209 47.9663 30.5821 47.9663 20.2031 47.9663Z" fill="#FCFCFC"/>
<path d="M51.7648 33.5067C51.7356 35.6327 49.9572 37.351 47.8144 37.3073C45.6861 37.2782 43.9805 35.4871 44.0243 33.3466C44.068 31.2497 45.8318 29.546 47.9455 29.5751C50.0592 29.5896 51.7939 31.3662 51.7648 33.5067Z" fill="#FCFCFC"/>
<path opacity="0.5" d="M16.2656 55.6692V19.6436H24.0644V53.5432L22.4901 55.6692H16.2656Z" fill="white"/>
<path d="M23.002 20.692V53.1937L21.9524 54.6062H17.3168V20.692H23.002ZM25.1157 18.5806H15.2031V56.7177H23.002L25.1157 53.8927V18.5806Z" fill="#45ACB4"/>
<path opacity="0.8" d="M24.0664 15.188H52.6816L24.0664 53.5435V15.188Z" fill="white"/>
<path d="M50.5841 16.2364L25.1322 50.3545V16.2364H50.5841ZM54.7823 14.125H23.0039V56.718L54.7823 14.125Z" fill="#45ACB4"/>
<g opacity="0.8">
<path d="M28.3945 56.7188H29.2254" stroke="white" stroke-width="0.75" stroke-miterlimit="10"/>
<path d="M30.875 56.7188H53.149" stroke="white" stroke-width="0.75" stroke-miterlimit="10" stroke-dasharray="1.13 1.13"/>
<path d="M53.9648 56.7188H54.7812V55.9033" stroke="white" stroke-width="0.75" stroke-miterlimit="10"/>
<path d="M54.7812 54.2579V22.0474" stroke="white" stroke-width="0.75" stroke-miterlimit="10" stroke-dasharray="1.13 1.13"/>
<path d="M54.7812 21.2173V20.4019" stroke="white" stroke-width="0.75" stroke-miterlimit="10"/>
</g>
</svg>
