<svg width="84" height="102" viewBox="0 0 84 102" fill="none" xmlns="http://www.w3.org/2000/svg">
<path d="M41 69.9253C60.33 69.9253 76 54.272 76 34.9627C76 15.6533 60.33 0 41 0C21.67 0 6 15.6533 6 34.9627C6 54.272 21.67 69.9253 41 69.9253Z" fill="#1C2D46"/>
<path d="M26.57 35.9678C26.1327 35.8222 25.7245 35.6912 25.3309 35.531C24.3105 35.1233 23.9169 34.2787 24.0773 33.2011C24.4417 30.7693 24.879 28.3521 24.5729 25.862C24.4854 25.1922 24.223 24.668 23.742 24.2165C21.3222 21.974 21.7886 18.6103 23.4067 16.8338C24.8936 15.2029 26.7012 14.5913 28.8586 15.2029C33.5379 16.5425 38.2026 17.8968 42.8673 19.251C48.7274 20.9547 54.5874 22.673 60.4475 24.3622C64.223 25.4543 65.6807 30.216 62.9985 33.0409C62.1093 33.9875 61.7157 35.0068 61.7886 36.2008C61.9053 38.2249 62.0948 40.249 62.3426 42.2585C62.5467 43.8457 61.8615 44.7777 60.2435 44.8359C60.1414 44.8359 60.0248 44.8651 59.8644 44.8796C59.8644 46.2775 59.8499 47.6609 59.879 49.0297C59.879 49.4665 59.7624 49.7869 59.4271 50.0927C56.3951 52.8886 53.3921 55.699 50.3746 58.4948C49.4562 59.3394 47.8673 59.5141 46.7886 58.9025C46.0743 58.4948 46.0014 58.0288 46.5991 57.4755C47.6195 56.5144 48.6545 55.5533 49.6749 54.6068C50.2726 54.0389 50.2143 53.573 49.5146 53.1652C48.6982 52.6992 46.7012 52.5536 45.8702 53.6021C44.9227 54.7961 43.6691 55.0291 42.2697 54.5923C41.0889 54.2282 40.9577 53.6021 41.8469 52.7721C43.086 51.6217 44.3396 50.4713 45.5641 49.3064C46.1618 48.7385 46.0889 48.2871 45.3746 47.8793C44.5583 47.4134 42.6924 47.3842 41.774 48.2871C39.3105 50.6897 36.7595 52.9905 34.2376 55.3204C33.363 56.1358 31.5262 56.1941 30.5787 55.4514C30.0831 55.0583 30.0539 54.6796 30.5496 54.2137C31.6429 53.1652 32.7653 52.1459 33.8732 51.0975C34.5583 50.4422 34.4708 49.9908 33.5962 49.5685C32.4446 49.0151 31.0015 49.1753 30.0977 50.1073C29.2376 50.9955 27.3571 50.9664 26.4825 50.4422C25.7828 50.0199 25.7391 49.5685 26.3513 48.986C27.0364 48.3307 27.7507 47.69 28.4359 47.0347C28.9752 46.5251 28.9169 46.0591 28.3046 45.6659C27.2259 44.9815 25.5933 45.1417 24.6603 46.0154C23.6982 46.9037 22.7361 47.8065 21.774 48.6948C20.8265 49.5539 19.2668 49.6995 18.188 49.0443C17.5321 48.6365 17.4592 48.1706 18.0277 47.6463C20.7099 45.1417 23.3775 42.6371 26.0743 40.1616C26.4533 39.8121 26.6283 39.4627 26.5991 38.9384C26.5408 37.9774 26.57 37.0017 26.57 35.9678ZM56.6574 24.5806C54.4708 23.9399 52.4009 23.3428 50.3309 22.7313C44.223 20.9256 38.1152 19.12 31.9927 17.3289C30.7682 16.9648 29.5146 16.6445 28.2755 16.3387C25.2726 15.6251 22.5612 18.5229 23.4358 21.5081C23.6982 22.4109 24.1647 23.0953 25.1997 23.3428C26.5117 23.6486 27.7945 24.1146 29.0773 24.5078C30.5787 24.9592 32.0947 25.4252 33.5962 25.8766C33.9752 25.9931 34.2813 26.1969 34.1647 26.6484C34.0481 27.1435 33.6399 27.158 33.2463 27.0561C32.8965 26.9687 32.5612 26.8377 32.2114 26.7357C30.0394 26.0804 27.8673 25.4252 25.6953 24.7553C25.7682 25.629 25.9431 26.4591 25.8848 27.2745C25.7391 29.2986 25.5204 31.3227 25.2872 33.3322C25.2143 33.9001 25.3455 34.2496 25.8994 34.4243C26.1326 34.4971 26.3659 34.599 26.5991 34.6573C34.9665 37.1037 43.3338 39.5355 51.6866 41.9673C52.9111 42.3168 54.121 42.6662 55.535 43.0594C55.7099 40.6713 55.8994 38.3997 56.0452 36.128C56.1181 34.9922 55.8119 34.0166 54.9373 33.1429C52.4883 30.7256 53.3484 27.0706 55.4475 25.4106C55.812 25.1485 56.2055 24.9009 56.6574 24.5806ZM59.879 43.5545C61.016 43.7292 61.2493 43.4234 61.1326 42.375C60.8994 40.38 60.6807 38.3851 60.5787 36.3901C60.4912 34.8466 60.8119 33.405 62.0802 32.2837C62.8965 31.5702 63.1881 30.58 63.1589 29.4733C63.1006 27.6094 61.8761 26.0368 60.0248 25.5271C58.2463 25.032 56.3076 25.8183 55.3455 27.4201C54.3396 29.0656 54.4708 30.9732 55.8557 32.3274C56.9636 33.405 57.3863 34.6573 57.2988 36.0989C57.1676 38.2104 56.9635 40.3218 56.7595 42.4332C56.6574 43.4817 56.8615 43.7147 57.9985 43.5691C57.9985 42.8119 58.0131 42.0546 57.9985 41.2829C57.984 40.5839 58.3921 40.482 58.9606 40.482C59.5292 40.482 59.9519 40.5548 59.9227 41.2683C59.8499 42.0401 59.879 42.8119 59.879 43.5545Z" fill="white"/>
<path d="M51.805 32.4727C51.2365 32.3125 50.7991 32.2106 50.3618 32.0795C46.3239 30.9 42.286 29.7205 38.2481 28.5265C38.0295 28.4682 37.7671 28.41 37.6359 28.2644C37.4901 28.1042 37.3881 27.8129 37.4464 27.6236C37.5047 27.4489 37.7671 27.2887 37.9712 27.2159C38.1169 27.1722 38.321 27.2596 38.4814 27.3178C42.84 28.5847 47.2131 29.8661 51.5717 31.133C51.9653 31.2495 52.3589 31.3951 52.2423 31.8902C52.2277 32.1232 51.9508 32.2979 51.805 32.4727Z" fill="white"/>
<path d="M6.53143 92.7464C6.49166 92.3454 6.32096 92.0339 6.01935 91.8118C5.71774 91.5897 5.30842 91.4787 4.79137 91.4787C4.44005 91.4787 4.14341 91.5284 3.90146 91.6278C3.65951 91.724 3.4739 91.8582 3.34464 92.0305C3.21869 92.2029 3.15572 92.3984 3.15572 92.6172C3.14909 92.7995 3.1872 92.9586 3.27006 93.0945C3.35624 93.2304 3.4739 93.348 3.62305 93.4474C3.77219 93.5436 3.94454 93.6281 4.14009 93.701C4.33564 93.7706 4.54445 93.8303 4.76651 93.88L5.68129 94.0987C6.12541 94.1982 6.53308 94.3307 6.9043 94.4964C7.27551 94.6622 7.59701 94.866 7.86879 95.108C8.14057 95.3499 8.35103 95.6349 8.50018 95.9631C8.65264 96.2912 8.73053 96.6674 8.73384 97.0916C8.73053 97.7147 8.57144 98.255 8.25657 98.7124C7.94502 99.1664 7.49426 99.5194 6.9043 99.7713C6.31765 100.02 5.61003 100.144 4.78143 100.144C3.95946 100.144 3.24355 100.018 2.6337 99.7663C2.02717 99.5144 1.55321 99.1416 1.21183 98.6477C0.873757 98.1506 0.696437 97.5357 0.679865 96.8033H2.76296C2.78616 97.1446 2.88394 97.4297 3.05629 97.6584C3.23195 97.8838 3.46561 98.0545 3.75728 98.1705C4.05226 98.2831 4.38536 98.3395 4.75657 98.3395C5.12115 98.3395 5.43768 98.2865 5.70614 98.1804C5.97792 98.0743 6.18839 97.9268 6.33754 97.7379C6.48668 97.549 6.56126 97.3319 6.56126 97.0866C6.56126 96.858 6.49331 96.6657 6.35742 96.5099C6.22485 96.3542 6.0293 96.2216 5.77077 96.1122C5.51557 96.0028 5.20236 95.9034 4.83114 95.8139L3.72248 95.5355C2.86405 95.3267 2.18626 95.0002 1.6891 94.5561C1.19194 94.112 0.945017 93.5137 0.948331 92.7614C0.945017 92.1449 1.10908 91.6063 1.44052 91.1456C1.77527 90.6849 2.23432 90.3253 2.81765 90.0668C3.40098 89.8082 4.06386 89.679 4.80629 89.679C5.56197 89.679 6.22153 89.8082 6.78498 90.0668C7.35174 90.3253 7.79255 90.6849 8.10742 91.1456C8.42229 91.6063 8.58469 92.1399 8.59464 92.7464H6.53143ZM10.1818 100V89.8182H17.0426V91.593H12.3345V94.0192H16.6896V95.794H12.3345V98.2251H17.0625V100H10.1818ZM18.7541 100V89.8182H22.7711C23.5401 89.8182 24.1963 89.9557 24.7399 90.2308C25.2868 90.5026 25.7027 90.8887 25.9877 91.3892C26.2761 91.8864 26.4203 92.4714 26.4203 93.1442C26.4203 93.8203 26.2744 94.402 25.9828 94.8892C25.6911 95.3731 25.2685 95.7443 24.715 96.0028C24.1648 96.2614 23.4986 96.3906 22.7164 96.3906H20.0268V94.6605H22.3684C22.7794 94.6605 23.1208 94.6042 23.3926 94.4915C23.6644 94.3788 23.8665 94.2098 23.9991 93.9844C24.135 93.759 24.2029 93.4789 24.2029 93.1442C24.2029 92.8061 24.135 92.5211 23.9991 92.2891C23.8665 92.0571 23.6627 91.8814 23.3876 91.7621C23.1158 91.6394 22.7728 91.5781 22.3585 91.5781H20.9068V100H18.7541ZM24.2527 95.3665L26.7832 100H24.4068L21.9309 95.3665H24.2527ZM30.0943 89.8182V100H27.9416V89.8182H30.0943ZM38.6168 93.1094C38.5472 92.8674 38.4495 92.6536 38.3235 92.468C38.1976 92.2791 38.0434 92.12 37.8612 91.9908C37.6822 91.8582 37.4767 91.7571 37.2447 91.6875C37.016 91.6179 36.7624 91.5831 36.484 91.5831C35.9637 91.5831 35.5063 91.7124 35.1119 91.9709C34.7208 92.2294 34.4158 92.6056 34.1971 93.0994C33.9783 93.59 33.869 94.1899 33.869 94.8991C33.869 95.6084 33.9767 96.2116 34.1921 96.7088C34.4076 97.206 34.7125 97.5855 35.1069 97.8473C35.5013 98.1058 35.967 98.2351 36.5039 98.2351C36.9911 98.2351 37.4071 98.1489 37.7518 97.9766C38.0998 97.8009 38.3649 97.554 38.5472 97.2358C38.7328 96.9176 38.8256 96.5414 38.8256 96.1072L39.2631 96.1719H36.6381V94.5511H40.8988V95.8338C40.8988 96.7287 40.7099 97.4976 40.332 98.1406C39.9542 98.7803 39.4338 99.2741 38.771 99.6222C38.1081 99.9669 37.3491 100.139 36.494 100.139C35.5394 100.139 34.7009 99.9287 33.9783 99.5078C33.2558 99.0836 32.6924 98.482 32.288 97.7031C31.887 96.9209 31.6864 95.9929 31.6864 94.919C31.6864 94.0937 31.8058 93.358 32.0444 92.7116C32.2863 92.062 32.6244 91.5118 33.0586 91.0611C33.4928 90.6103 33.9982 90.2673 34.5749 90.032C35.1516 89.7966 35.7764 89.679 36.4492 89.679C37.0259 89.679 37.5629 89.7635 38.06 89.9325C38.5572 90.0982 38.998 90.3336 39.3825 90.6385C39.7702 90.9434 40.0868 91.3063 40.332 91.7273C40.5773 92.1449 40.7347 92.6056 40.8043 93.1094H38.6168ZM42.5158 100V89.8182H46.5328C47.3018 89.8182 47.958 89.9557 48.5016 90.2308C49.0485 90.5026 49.4644 90.8887 49.7495 91.3892C50.0378 91.8864 50.182 92.4714 50.182 93.1442C50.182 93.8203 50.0362 94.402 49.7445 94.8892C49.4528 95.3731 49.0302 95.7443 48.4767 96.0028C47.9266 96.2614 47.2604 96.3906 46.4782 96.3906H43.7885V94.6605H46.1301C46.5411 94.6605 46.8825 94.6042 47.1543 94.4915C47.4261 94.3788 47.6283 94.2098 47.7608 93.9844C47.8967 93.759 47.9647 93.4789 47.9647 93.1442C47.9647 92.8061 47.8967 92.5211 47.7608 92.2891C47.6283 92.0571 47.4244 91.8814 47.1493 91.7621C46.8775 91.6394 46.5345 91.5781 46.1202 91.5781H44.6685V100H42.5158ZM48.0144 95.3665L50.5449 100H48.1685L45.6926 95.3665H48.0144ZM53.4583 100H51.1515L54.6664 89.8182H57.4405L60.9505 100H58.6436L56.0932 92.1449H56.0137L53.4583 100ZM53.3141 95.9979H58.763V97.6783H53.3141V95.9979ZM62.176 100V89.8182H68.9174V91.593H64.3287V94.0192H68.47V95.794H64.3287V100H62.176ZM72.5181 89.8182V100H70.3654V89.8182H72.5181ZM70.6886 88.8338L71.7425 86.5717H73.7013L72.185 88.8338H70.6886ZM76.0442 100H73.7374L77.2523 89.8182H80.0265L83.5364 100H81.2296L78.6792 92.1449H78.5996L76.0442 100ZM75.9 95.9979H81.3489V97.6783H75.9V95.9979Z" fill="#1C2D46"/>
</svg>
