<svg width="70" height="100" viewBox="0 0 70 100" fill="none" xmlns="http://www.w3.org/2000/svg">
<path d="M12.0809 87.8182L14.5418 95.554H14.6363L17.1022 87.8182H19.4885L15.9786 98H13.2045L9.68954 87.8182H12.0809ZM22.8667 87.8182V98H20.714V87.8182H22.8667ZM33.1542 87.8182V98H31.2948L26.8651 91.5916H26.7906V98H24.6379V87.8182H26.5271L30.922 94.2216H31.0115V87.8182H33.1542ZM37.0855 87.8182V98H34.9328V87.8182H37.0855ZM38.8566 98V87.8182H41.0093V96.2251H45.3744V98H38.8566ZM55.76 92.9091C55.76 94.0194 55.5496 94.964 55.1286 95.7429C54.711 96.5218 54.141 97.1167 53.4184 97.5277C52.6992 97.9354 51.8905 98.1392 50.9923 98.1392C50.0874 98.1392 49.2754 97.9337 48.5562 97.5227C47.837 97.1117 47.2686 96.5168 46.8509 95.7379C46.4333 94.959 46.2245 94.0161 46.2245 92.9091C46.2245 91.7988 46.4333 90.8542 46.8509 90.0753C47.2686 89.2964 47.837 88.7031 48.5562 88.2955C49.2754 87.8845 50.0874 87.679 50.9923 87.679C51.8905 87.679 52.6992 87.8845 53.4184 88.2955C54.141 88.7031 54.711 89.2964 55.1286 90.0753C55.5496 90.8542 55.76 91.7988 55.76 92.9091ZM53.5775 92.9091C53.5775 92.1899 53.4698 91.5833 53.2544 91.0895C53.0422 90.5956 52.7423 90.2211 52.3545 89.9659C51.9667 89.7107 51.5126 89.5831 50.9923 89.5831C50.4719 89.5831 50.0178 89.7107 49.6301 89.9659C49.2423 90.2211 48.9407 90.5956 48.7252 91.0895C48.5131 91.5833 48.407 92.1899 48.407 92.9091C48.407 93.6283 48.5131 94.2348 48.7252 94.7287C48.9407 95.2225 49.2423 95.5971 49.6301 95.8523C50.0178 96.1075 50.4719 96.2351 50.9923 96.2351C51.5126 96.2351 51.9667 96.1075 52.3545 95.8523C52.7423 95.5971 53.0422 95.2225 53.2544 94.7287C53.4698 94.2348 53.5775 93.6283 53.5775 92.9091ZM62.8781 90.7464C62.8383 90.3454 62.6676 90.0339 62.366 89.8118C62.0644 89.5897 61.6551 89.4787 61.1381 89.4787C60.7867 89.4787 60.4901 89.5284 60.2481 89.6278C60.0062 89.724 59.8206 89.8582 59.6913 90.0305C59.5654 90.2029 59.5024 90.3984 59.5024 90.6172C59.4958 90.7995 59.5339 90.9586 59.6167 91.0945C59.7029 91.2304 59.8206 91.348 59.9697 91.4474C60.1189 91.5436 60.2912 91.6281 60.4868 91.701C60.6823 91.7706 60.8911 91.8303 61.1132 91.88L62.028 92.0987C62.4721 92.1982 62.8798 92.3307 63.251 92.4964C63.6222 92.6622 63.9437 92.866 64.2155 93.108C64.4872 93.3499 64.6977 93.6349 64.8469 93.9631C64.9993 94.2912 65.0772 94.6674 65.0805 95.0916C65.0772 95.7147 64.9181 96.255 64.6032 96.7124C64.2917 97.1664 63.8409 97.5194 63.251 97.7713C62.6643 98.0199 61.9567 98.1442 61.1281 98.1442C60.3061 98.1442 59.5902 98.0182 58.9804 97.7663C58.3738 97.5144 57.8999 97.1416 57.5585 96.6477C57.2204 96.1506 57.0431 95.5357 57.0265 94.8033H59.1096C59.1328 95.1446 59.2306 95.4297 59.403 95.6584C59.5786 95.8838 59.8123 96.0545 60.104 96.1705C60.3989 96.2831 60.732 96.3395 61.1032 96.3395C61.4678 96.3395 61.7844 96.2865 62.0528 96.1804C62.3246 96.0743 62.5351 95.9268 62.6842 95.7379C62.8334 95.549 62.9079 95.3319 62.9079 95.0866C62.9079 94.858 62.84 94.6657 62.7041 94.5099C62.5715 94.3542 62.376 94.2216 62.1175 94.1122C61.8622 94.0028 61.549 93.9034 61.1778 93.8139L60.0692 93.5355C59.2107 93.3267 58.5329 93.0002 58.0358 92.5561C57.5386 92.112 57.2917 91.5137 57.295 90.7614C57.2917 90.1449 57.4558 89.6063 57.7872 89.1456C58.122 88.6849 58.581 88.3253 59.1643 88.0668C59.7477 87.8082 60.4105 87.679 61.153 87.679C61.9086 87.679 62.5682 87.8082 63.1317 88.0668C63.6984 88.3253 64.1392 88.6849 64.4541 89.1456C64.769 89.6063 64.9314 90.1399 64.9413 90.7464H62.8781Z" fill="#1C2D46"/>
<path d="M35 69.9253C54.33 69.9253 70 54.272 70 34.9627C70 15.6533 54.33 0 35 0C15.67 0 0 15.6533 0 34.9627C0 54.272 15.67 69.9253 35 69.9253Z" fill="#45ACB4"/>
<path d="M26.3008 12.3491C22.8751 12.3491 20.1055 13.5286 20.1055 14.9994C20.1055 16.4701 22.8751 17.6496 26.3008 17.6496C29.7265 17.6496 32.4961 16.4701 32.4961 14.9994C32.4961 13.5286 29.7265 12.3491 26.3008 12.3491ZM26.3008 15.8585C24.7556 15.8585 23.502 15.4799 23.502 14.9994C23.502 14.5188 24.7556 14.1257 26.3008 14.1257C27.846 14.1257 29.0996 14.5043 29.0996 14.9848C29.0996 15.4653 27.846 15.8585 26.3008 15.8585Z" fill="white"/>
<path d="M24.4786 19.0179C24.4786 19.0179 21.5923 19.0761 20.1055 17.5908C20.1055 17.5908 20.1055 52.3351 20.1055 53.2816C20.1055 54.2281 21.0238 56.7327 24.4786 56.7327H49.9014V19.0179H24.4786Z" fill="white"/>
<path d="M32.3064 18.4936C32.3064 17.9112 32.3064 17.5908 32.3064 17.5908C31.8983 17.9985 31.3881 18.2898 30.8633 18.4936H32.3064Z" fill="white"/>
<path d="M45.1944 52.9317C40.3111 49.6698 35.486 46.4663 30.6172 43.219C33.1391 41.2677 35.6026 39.3456 38.1245 37.3798C36.9874 36.4041 35.8941 35.4722 34.7571 34.4965C34.9321 34.3655 45.0632 26.7351 45.1944 26.6187C45.1799 26.6187 45.1944 44.1218 45.1944 52.9317Z" fill="#45ACB4"/>
<path d="M32.8894 23.7934C34.697 23.8225 36.1547 25.3224 36.1256 27.1426C36.0964 28.9482 34.5804 30.4044 32.7582 30.3607C30.9798 30.3316 29.5221 28.8317 29.5512 27.0261C29.5658 25.235 31.0672 23.7643 32.8894 23.7934Z" fill="#45ACB4"/>
</svg>
