<svg width="1442" height="141" viewBox="0 0 1442 141" fill="none" xmlns="http://www.w3.org/2000/svg">
<line x1="1440" y1="140" y2="140" stroke="#45ACB4" stroke-width="2" stroke-dasharray="4 4"/>
<rect x="2" width="1438" height="139" fill="white"/>
<line x1="1442" y1="1" x2="2" y2="1" stroke="#45ACB4" stroke-width="2" stroke-dasharray="4 4"/>
<path d="M247.081 108.818L249.542 116.554H249.636L252.102 108.818H254.489L250.979 119H248.204L244.69 108.818H247.081ZM257.867 108.818V119H255.714V108.818H257.867ZM268.154 108.818V119H266.295L261.865 112.592H261.791V119H259.638V108.818H261.527L265.922 115.222H266.011V108.818H268.154ZM272.085 108.818V119H269.933V108.818H272.085ZM273.857 119V108.818H276.009V117.225H280.374V119H273.857ZM290.76 113.909C290.76 115.019 290.55 115.964 290.129 116.743C289.711 117.522 289.141 118.117 288.418 118.528C287.699 118.935 286.89 119.139 285.992 119.139C285.087 119.139 284.275 118.934 283.556 118.523C282.837 118.112 282.269 117.517 281.851 116.738C281.433 115.959 281.225 115.016 281.225 113.909C281.225 112.799 281.433 111.854 281.851 111.075C282.269 110.296 282.837 109.703 283.556 109.295C284.275 108.884 285.087 108.679 285.992 108.679C286.89 108.679 287.699 108.884 288.418 109.295C289.141 109.703 289.711 110.296 290.129 111.075C290.55 111.854 290.76 112.799 290.76 113.909ZM288.578 113.909C288.578 113.19 288.47 112.583 288.254 112.089C288.042 111.596 287.742 111.221 287.354 110.966C286.967 110.711 286.513 110.583 285.992 110.583C285.472 110.583 285.018 110.711 284.63 110.966C284.242 111.221 283.941 111.596 283.725 112.089C283.513 112.583 283.407 113.19 283.407 113.909C283.407 114.628 283.513 115.235 283.725 115.729C283.941 116.223 284.242 116.597 284.63 116.852C285.018 117.107 285.472 117.235 285.992 117.235C286.513 117.235 286.967 117.107 287.354 116.852C287.742 116.597 288.042 116.223 288.254 115.729C288.47 115.235 288.578 114.628 288.578 113.909ZM297.878 111.746C297.838 111.345 297.668 111.034 297.366 110.812C297.064 110.59 296.655 110.479 296.138 110.479C295.787 110.479 295.49 110.528 295.248 110.628C295.006 110.724 294.821 110.858 294.691 111.031C294.565 111.203 294.502 111.398 294.502 111.617C294.496 111.799 294.534 111.959 294.617 112.094C294.703 112.23 294.821 112.348 294.97 112.447C295.119 112.544 295.291 112.628 295.487 112.701C295.682 112.771 295.891 112.83 296.113 112.88L297.028 113.099C297.472 113.198 297.88 113.331 298.251 113.496C298.622 113.662 298.944 113.866 299.215 114.108C299.487 114.35 299.698 114.635 299.847 114.963C299.999 115.291 300.077 115.667 300.081 116.092C300.077 116.715 299.918 117.255 299.603 117.712C299.292 118.166 298.841 118.519 298.251 118.771C297.664 119.02 296.957 119.144 296.128 119.144C295.306 119.144 294.59 119.018 293.98 118.766C293.374 118.514 292.9 118.142 292.559 117.648C292.22 117.151 292.043 116.536 292.027 115.803H294.11C294.133 116.145 294.231 116.43 294.403 116.658C294.579 116.884 294.812 117.054 295.104 117.17C295.399 117.283 295.732 117.339 296.103 117.339C296.468 117.339 296.784 117.286 297.053 117.18C297.325 117.074 297.535 116.927 297.684 116.738C297.833 116.549 297.908 116.332 297.908 116.087C297.908 115.858 297.84 115.666 297.704 115.51C297.572 115.354 297.376 115.222 297.117 115.112C296.862 115.003 296.549 114.903 296.178 114.814L295.069 114.536C294.211 114.327 293.533 114 293.036 113.556C292.539 113.112 292.292 112.514 292.295 111.761C292.292 111.145 292.456 110.606 292.787 110.146C293.122 109.685 293.581 109.325 294.164 109.067C294.748 108.808 295.411 108.679 296.153 108.679C296.909 108.679 297.568 108.808 298.132 109.067C298.698 109.325 299.139 109.685 299.454 110.146C299.769 110.606 299.931 111.14 299.941 111.746H297.878Z" fill="#1C2D46"/>
<path d="M270 90.9253C289.33 90.9253 305 75.272 305 55.9627C305 36.6533 289.33 21 270 21C250.67 21 235 36.6533 235 55.9627C235 75.272 250.67 90.9253 270 90.9253Z" fill="#1C2D46"/>
<path d="M261.301 33.3496C257.875 33.3496 255.105 34.5291 255.105 35.9998C255.105 37.4706 257.875 38.6501 261.301 38.6501C264.726 38.6501 267.496 37.4706 267.496 35.9998C267.496 34.5291 264.726 33.3496 261.301 33.3496ZM261.301 36.859C259.756 36.859 258.502 36.4804 258.502 35.9998C258.502 35.5193 259.756 35.1261 261.301 35.1261C262.846 35.1261 264.1 35.5047 264.1 35.9853C264.1 36.4658 262.846 36.859 261.301 36.859Z" fill="white"/>
<path d="M259.479 40.0188C259.479 40.0188 256.592 40.0771 255.105 38.5918C255.105 38.5918 255.105 73.336 255.105 74.2826C255.105 75.2291 256.024 77.7337 259.479 77.7337H284.901V40.0188H259.479Z" fill="white"/>
<path d="M267.306 39.4946C267.306 38.9122 267.306 38.5918 267.306 38.5918C266.898 38.9995 266.388 39.2908 265.863 39.4946H267.306Z" fill="white"/>
<path d="M280.194 73.9302C275.311 70.6684 270.486 67.4648 265.617 64.2175C268.139 62.2663 270.603 60.3441 273.124 58.3783C271.987 57.4027 270.894 56.4707 269.757 55.4951C269.932 55.364 280.063 47.7337 280.194 47.6172C280.18 47.6172 280.194 65.1204 280.194 73.9302Z" fill="#1C2D46"/>
<path d="M267.889 44.7934C269.697 44.8225 271.155 46.3224 271.126 48.1426C271.096 49.9482 269.58 51.4044 267.758 51.3607C265.98 51.3316 264.522 49.8317 264.551 48.0261C264.566 46.235 266.067 44.7643 267.889 44.7934Z" fill="#1C2D46"/>
<path d="M530.903 113.746C530.863 113.345 530.692 113.034 530.39 112.812C530.089 112.59 529.68 112.479 529.162 112.479C528.811 112.479 528.515 112.528 528.273 112.628C528.031 112.724 527.845 112.858 527.716 113.031C527.59 113.203 527.527 113.398 527.527 113.617C527.52 113.799 527.558 113.959 527.641 114.094C527.727 114.23 527.845 114.348 527.994 114.447C528.143 114.544 528.316 114.628 528.511 114.701C528.707 114.771 528.916 114.83 529.138 114.88L530.052 115.099C530.497 115.198 530.904 115.331 531.275 115.496C531.647 115.662 531.968 115.866 532.24 116.108C532.512 116.35 532.722 116.635 532.871 116.963C533.024 117.291 533.102 117.667 533.105 118.092C533.102 118.715 532.943 119.255 532.628 119.712C532.316 120.166 531.865 120.519 531.275 120.771C530.689 121.02 529.981 121.144 529.153 121.144C528.331 121.144 527.615 121.018 527.005 120.766C526.398 120.514 525.924 120.142 525.583 119.648C525.245 119.151 525.068 118.536 525.051 117.803H527.134C527.157 118.145 527.255 118.43 527.427 118.658C527.603 118.884 527.837 119.054 528.128 119.17C528.423 119.283 528.756 119.339 529.128 119.339C529.492 119.339 529.809 119.286 530.077 119.18C530.349 119.074 530.559 118.927 530.709 118.738C530.858 118.549 530.932 118.332 530.932 118.087C530.932 117.858 530.864 117.666 530.729 117.51C530.596 117.354 530.4 117.222 530.142 117.112C529.887 117.003 529.573 116.903 529.202 116.814L528.094 116.536C527.235 116.327 526.557 116 526.06 115.556C525.563 115.112 525.316 114.514 525.319 113.761C525.316 113.145 525.48 112.606 525.812 112.146C526.146 111.685 526.605 111.325 527.189 111.067C527.772 110.808 528.435 110.679 529.177 110.679C529.933 110.679 530.593 110.808 531.156 111.067C531.723 111.325 532.164 111.685 532.479 112.146C532.793 112.606 532.956 113.14 532.966 113.746H530.903ZM540.842 110.818H542.995V117.43C542.995 118.173 542.817 118.822 542.463 119.379C542.111 119.936 541.619 120.37 540.986 120.682C540.353 120.99 539.616 121.144 538.774 121.144C537.929 121.144 537.19 120.99 536.556 120.682C535.923 120.37 535.431 119.936 535.08 119.379C534.729 118.822 534.553 118.173 534.553 117.43V110.818H536.706V117.246C536.706 117.634 536.79 117.979 536.959 118.281C537.132 118.582 537.373 118.819 537.685 118.991C537.997 119.164 538.359 119.25 538.774 119.25C539.191 119.25 539.554 119.164 539.863 118.991C540.174 118.819 540.414 118.582 540.583 118.281C540.756 117.979 540.842 117.634 540.842 117.246V110.818ZM544.766 121V110.818H548.843C549.592 110.818 550.216 110.929 550.717 111.151C551.217 111.373 551.593 111.682 551.845 112.076C552.097 112.467 552.223 112.918 552.223 113.428C552.223 113.826 552.144 114.176 551.985 114.477C551.825 114.776 551.607 115.021 551.328 115.213C551.053 115.402 550.738 115.536 550.384 115.616V115.715C550.771 115.732 551.134 115.841 551.472 116.043C551.814 116.246 552.091 116.529 552.303 116.893C552.515 117.255 552.621 117.686 552.621 118.186C552.621 118.726 552.487 119.209 552.218 119.633C551.953 120.054 551.56 120.387 551.04 120.632C550.52 120.877 549.878 121 549.116 121H544.766ZM546.919 119.24H548.673C549.273 119.24 549.711 119.126 549.986 118.897C550.261 118.665 550.399 118.357 550.399 117.972C550.399 117.691 550.331 117.442 550.195 117.227C550.059 117.011 549.865 116.842 549.613 116.719C549.365 116.597 549.068 116.536 548.723 116.536H546.919V119.24ZM546.919 115.079H548.514C548.809 115.079 549.071 115.027 549.3 114.925C549.532 114.819 549.714 114.67 549.847 114.477C549.983 114.285 550.051 114.055 550.051 113.786C550.051 113.418 549.92 113.122 549.658 112.896C549.399 112.671 549.031 112.558 548.554 112.558H546.919V115.079ZM554.022 121V110.818H556.174V119.225H560.539V121H554.022ZM564.118 110.818V121H561.965V110.818H564.118ZM565.889 110.818H568.544L571.348 117.659H571.467L574.271 110.818H576.926V121H574.838V114.373H574.753L572.118 120.95H570.696L568.061 114.348H567.977V121H565.889V110.818ZM580.454 121H578.148L581.662 110.818H584.437L587.947 121H585.64L583.089 113.145H583.01L580.454 121ZM580.31 116.998H585.759V118.678H580.31V116.998ZM597.677 114.383H595.5C595.46 114.101 595.379 113.851 595.256 113.632C595.133 113.41 594.976 113.221 594.784 113.065C594.592 112.91 594.369 112.79 594.118 112.707C593.869 112.625 593.599 112.583 593.307 112.583C592.78 112.583 592.321 112.714 591.93 112.976C591.539 113.234 591.236 113.612 591.02 114.109C590.805 114.603 590.697 115.203 590.697 115.909C590.697 116.635 590.805 117.245 591.02 117.739C591.239 118.232 591.544 118.605 591.935 118.857C592.326 119.109 592.779 119.235 593.292 119.235C593.581 119.235 593.847 119.197 594.093 119.121C594.341 119.045 594.562 118.933 594.754 118.788C594.946 118.638 595.105 118.458 595.231 118.246C595.36 118.034 595.45 117.792 595.5 117.52L597.677 117.53C597.621 117.997 597.48 118.448 597.255 118.882C597.033 119.313 596.733 119.699 596.355 120.04C595.98 120.379 595.533 120.647 595.012 120.846C594.495 121.041 593.91 121.139 593.257 121.139C592.349 121.139 591.537 120.934 590.821 120.523C590.109 120.112 589.545 119.517 589.131 118.738C588.72 117.959 588.515 117.016 588.515 115.909C588.515 114.799 588.723 113.854 589.141 113.075C589.559 112.296 590.125 111.703 590.841 111.295C591.557 110.884 592.363 110.679 593.257 110.679C593.847 110.679 594.394 110.762 594.898 110.928C595.405 111.093 595.854 111.335 596.245 111.653C596.636 111.968 596.955 112.354 597.2 112.812C597.449 113.269 597.608 113.793 597.677 114.383ZM601.374 110.818V121H599.221V110.818H601.374ZM612.501 115.909C612.501 117.019 612.291 117.964 611.87 118.743C611.452 119.522 610.882 120.117 610.16 120.528C609.44 120.935 608.632 121.139 607.733 121.139C606.829 121.139 606.017 120.934 605.297 120.523C604.578 120.112 604.01 119.517 603.592 118.738C603.175 117.959 602.966 117.016 602.966 115.909C602.966 114.799 603.175 113.854 603.592 113.075C604.01 112.296 604.578 111.703 605.297 111.295C606.017 110.884 606.829 110.679 607.733 110.679C608.632 110.679 609.44 110.884 610.16 111.295C610.882 111.703 611.452 112.296 611.87 113.075C612.291 113.854 612.501 114.799 612.501 115.909ZM610.319 115.909C610.319 115.19 610.211 114.583 609.996 114.089C609.783 113.596 609.483 113.221 609.096 112.966C608.708 112.711 608.254 112.583 607.733 112.583C607.213 112.583 606.759 112.711 606.371 112.966C605.983 113.221 605.682 113.596 605.466 114.089C605.254 114.583 605.148 115.19 605.148 115.909C605.148 116.628 605.254 117.235 605.466 117.729C605.682 118.223 605.983 118.597 606.371 118.852C606.759 119.107 607.213 119.235 607.733 119.235C608.254 119.235 608.708 119.107 609.096 118.852C609.483 118.597 609.783 118.223 609.996 117.729C610.211 117.235 610.319 116.628 610.319 115.909ZM606.973 109.834L608.027 107.572H609.986L608.469 109.834H606.973ZM622.612 110.818V121H620.753L616.323 114.592H616.249V121H614.096V110.818H615.985L620.38 117.222H620.469V110.818H622.612Z" fill="#1C2D46"/>
<path d="M574 90.9253C593.33 90.9253 609 75.272 609 55.9627C609 36.6533 593.33 21 574 21C554.67 21 539 36.6533 539 55.9627C539 75.272 554.67 90.9253 574 90.9253Z" fill="#45ACB4"/>
<path d="M601.717 56.4001C601.63 56.866 601.542 57.332 601.426 57.7834C600.376 61.9772 596.994 64.9624 592.694 65.3992C591.47 65.5303 590.216 65.4575 588.977 65.4429C588.569 65.4429 588.379 65.5448 588.233 65.9526C587.33 68.7193 586.149 71.3695 584.414 73.7285C583.671 74.7478 582.782 75.6652 581.951 76.6117C581.834 76.7428 581.601 76.8302 581.411 76.8302C575.07 76.8447 568.744 76.8447 562.403 76.8302C562.184 76.8302 561.921 76.67 561.761 76.5244C559.662 74.5003 558.131 72.0976 556.936 69.4619C555.158 65.5448 554.166 61.4239 553.569 57.1718C552.971 52.8616 552.782 48.5222 553.015 44.1682C553.088 42.7121 553.248 41.2559 553.379 39.7852C565.726 39.7852 578.044 39.7852 590.435 39.7852C590.595 41.6636 590.741 43.5275 590.887 45.406C591.703 45.4788 592.534 45.4933 593.335 45.639C597.009 46.3088 599.56 48.4057 600.989 51.8423C601.338 52.6868 601.47 53.6042 601.703 54.4925C601.717 55.1186 601.717 55.7594 601.717 56.4001ZM589.852 59.7347C589.647 60.6958 589.443 61.6132 589.225 62.6616C590.58 62.5888 591.921 62.6907 593.161 62.4286C596.178 61.7733 598.102 59.8512 598.7 56.8369C599.283 53.8518 598.219 51.4054 595.755 49.6143C594.327 48.5804 592.694 48.2455 590.887 48.362C590.887 49.3231 590.887 50.2405 590.887 51.1579C590.887 51.1579 590.682 54.143 590.507 55.9487C590.435 56.8952 589.852 59.7347 589.852 59.7347Z" fill="white"/>
<path d="M558.715 64.8014C561.659 60.3746 564.575 56.0207 567.505 51.623C569.283 53.8947 571.018 56.1372 572.796 58.4088C573.671 57.3895 574.531 56.3847 575.406 55.3654C575.537 55.5256 582.432 64.6849 582.549 64.8014C582.563 64.8014 566.703 64.8014 558.715 64.8014Z" fill="#45ACB4"/>
<path d="M585.127 53.6905C585.097 55.336 583.742 56.6466 582.08 56.6174C580.447 56.5883 579.135 55.2195 579.165 53.574C579.194 51.9577 580.549 50.6471 582.182 50.6763C583.815 50.6763 585.141 52.0451 585.127 53.6905Z" fill="#45ACB4"/>
<path d="M868.863 121H865.254V110.818H868.893C869.917 110.818 870.799 111.022 871.538 111.43C872.277 111.834 872.846 112.416 873.243 113.175C873.644 113.934 873.845 114.842 873.845 115.899C873.845 116.96 873.644 117.871 873.243 118.634C872.846 119.396 872.274 119.981 871.528 120.388C870.786 120.796 869.898 121 868.863 121ZM867.407 119.156H868.774C869.41 119.156 869.946 119.043 870.38 118.817C870.817 118.589 871.145 118.236 871.364 117.759C871.586 117.278 871.697 116.658 871.697 115.899C871.697 115.147 871.586 114.532 871.364 114.055C871.145 113.577 870.819 113.226 870.385 113.001C869.951 112.775 869.415 112.663 868.779 112.663H867.407V119.156ZM874.587 112.593V110.818H882.949V112.593H879.832V121H877.704V112.593H874.587ZM884.326 121V110.818H891.068V112.593H886.479V115.019H890.62V116.794H886.479V121H884.326Z" fill="#1C2D46"/>
<path d="M878 90.9253C897.33 90.9253 913 75.272 913 55.9627C913 36.6533 897.33 21 878 21C858.67 21 843 36.6533 843 55.9627C843 75.272 858.67 90.9253 878 90.9253Z" fill="#45ACB4"/>
<path d="M863.203 68.9653C867.037 63.2134 870.827 57.5489 874.646 51.8262C876.949 54.7822 879.224 57.6945 881.527 60.6506C882.664 59.3109 883.772 58.0295 884.923 56.6898C885.084 56.8936 894.063 68.8197 894.209 68.9653C894.209 68.9653 873.582 68.9653 863.203 68.9653Z" fill="#FCFCFC"/>
<path d="M894.765 54.5062C894.736 56.6323 892.957 58.3505 890.814 58.3069C888.686 58.2777 886.981 56.4866 887.024 54.3461C887.068 52.2492 888.832 50.5455 890.946 50.5746C893.059 50.5891 894.794 52.3657 894.765 54.5062Z" fill="#FCFCFC"/>
<path opacity="0.5" d="M859.266 76.6702V40.6445H867.064V74.5442L865.49 76.6702H859.266Z" fill="white"/>
<path d="M866.002 41.6935V74.1952L864.952 75.6077H860.317V41.6935H866.002ZM868.116 39.582H858.203V77.7192H866.002L868.116 74.8942V39.582Z" fill="#45ACB4"/>
<path opacity="0.8" d="M867.066 36.1875H895.682L867.066 74.543V36.1875Z" fill="white"/>
<path d="M893.584 37.2364L868.132 71.3545V37.2364H893.584ZM897.782 35.125H866.004V77.718L897.782 35.125Z" fill="#45ACB4"/>
<g opacity="0.8">
<path d="M871.395 77.7188H872.225" stroke="white" stroke-width="0.75" stroke-miterlimit="10" stroke-dasharray="4 4"/>
<path d="M873.875 77.7188H896.149" stroke="white" stroke-width="0.75" stroke-miterlimit="10" stroke-dasharray="4 4"/>
<path d="M896.965 77.7178H897.781V76.9023" stroke="white" stroke-width="0.75" stroke-miterlimit="10" stroke-dasharray="4 4"/>
<path d="M897.781 75.2593V43.0488" stroke="white" stroke-width="0.75" stroke-miterlimit="10" stroke-dasharray="4 4"/>
<path d="M897.781 42.2178V41.4023" stroke="white" stroke-width="0.75" stroke-miterlimit="10" stroke-dasharray="4 4"/>
</g>
<path d="M1173 90.9253C1192.33 90.9253 1208 75.272 1208 55.9627C1208 36.6533 1192.33 21 1173 21C1153.67 21 1138 36.6533 1138 55.9627C1138 75.272 1153.67 90.9253 1173 90.9253Z" fill="#45ACB4"/>
<path d="M1158.57 56.9664C1158.13 56.8208 1157.72 56.6897 1157.33 56.5295C1156.31 56.1218 1155.92 55.2772 1156.08 54.1997C1156.44 51.7679 1156.88 49.3506 1156.57 46.8606C1156.49 46.1907 1156.22 45.6665 1155.74 45.2151C1153.32 42.9726 1153.79 39.6088 1155.41 37.8323C1156.89 36.2014 1158.7 35.5898 1160.86 36.2014C1165.54 37.5411 1170.2 38.8953 1174.87 40.2495C1180.73 41.9533 1186.59 43.6715 1192.45 45.3607C1196.22 46.4528 1197.68 51.2145 1195 54.0395C1194.11 54.986 1193.72 56.0053 1193.79 57.1994C1193.91 59.2234 1194.09 61.2475 1194.34 63.257C1194.55 64.8443 1193.86 65.7762 1192.24 65.8345C1192.14 65.8345 1192.02 65.8636 1191.86 65.8781C1191.86 67.2761 1191.85 68.6594 1191.88 70.0282C1191.88 70.4651 1191.76 70.7854 1191.43 71.0912C1188.4 73.8871 1185.39 76.6975 1182.37 79.4933C1181.46 80.3379 1179.87 80.5127 1178.79 79.9011C1178.07 79.4933 1178 79.0274 1178.6 78.474C1179.62 77.513 1180.65 76.5519 1181.67 75.6054C1182.27 75.0375 1182.21 74.5715 1181.51 74.1638C1180.7 73.6978 1178.7 73.5522 1177.87 74.6006C1176.92 75.7947 1175.67 76.0277 1174.27 75.5908C1173.09 75.2268 1172.96 74.6006 1173.85 73.7706C1175.09 72.6202 1176.34 71.4698 1177.56 70.3049C1178.16 69.737 1178.09 69.2856 1177.37 68.8779C1176.56 68.4119 1174.69 68.3828 1173.77 69.2856C1171.31 71.6883 1168.76 73.989 1166.24 76.3189C1165.36 77.1344 1163.53 77.1926 1162.58 76.45C1162.08 76.0568 1162.05 75.6782 1162.55 75.2122C1163.64 74.1638 1164.77 73.1444 1165.87 72.096C1166.56 71.4407 1166.47 70.9893 1165.6 70.567C1164.44 70.0137 1163 70.1739 1162.1 71.1058C1161.24 71.9941 1159.36 71.9649 1158.48 71.4407C1157.78 71.0184 1157.74 70.567 1158.35 69.9846C1159.04 69.3293 1159.75 68.6886 1160.44 68.0333C1160.98 67.5236 1160.92 67.0576 1160.3 66.6645C1159.23 65.9801 1157.59 66.1403 1156.66 67.014C1155.7 67.9022 1154.74 68.805 1153.77 69.6933C1152.83 70.5525 1151.27 70.6981 1150.19 70.0428C1149.53 69.6351 1149.46 69.1691 1150.03 68.6449C1152.71 66.1403 1155.38 63.6356 1158.07 61.1602C1158.45 60.8107 1158.63 60.4612 1158.6 59.937C1158.54 58.9759 1158.57 58.0003 1158.57 56.9664ZM1188.66 45.5791C1186.47 44.9384 1184.4 44.3414 1182.33 43.7298C1176.22 41.9241 1170.12 40.1185 1163.99 38.3274C1162.77 37.9634 1161.51 37.643 1160.28 37.3372C1157.27 36.6237 1154.56 39.5215 1155.44 42.5066C1155.7 43.4094 1156.16 44.0938 1157.2 44.3414C1158.51 44.6472 1159.79 45.1132 1161.08 45.5063C1162.58 45.9577 1164.09 46.4237 1165.6 46.8751C1165.98 46.9916 1166.28 47.1955 1166.16 47.6469C1166.05 48.142 1165.64 48.1565 1165.25 48.0546C1164.9 47.9672 1164.56 47.8362 1164.21 47.7343C1162.04 47.079 1159.87 46.4237 1157.7 45.7539C1157.77 46.6276 1157.94 47.4576 1157.88 48.273C1157.74 50.2971 1157.52 52.3212 1157.29 54.3307C1157.21 54.8986 1157.35 55.2481 1157.9 55.4228C1158.13 55.4956 1158.37 55.5976 1158.6 55.6558C1166.97 58.1022 1175.33 60.534 1183.69 62.9658C1184.91 63.3153 1186.12 63.6648 1187.53 64.0579C1187.71 61.6698 1187.9 59.3982 1188.05 57.1266C1188.12 55.9907 1187.81 55.0151 1186.94 54.1414C1184.49 51.7242 1185.35 48.0692 1187.45 46.4091C1187.81 46.147 1188.21 45.8995 1188.66 45.5791ZM1191.88 64.553C1193.02 64.7278 1193.25 64.422 1193.13 63.3735C1192.9 61.3786 1192.68 59.3836 1192.58 57.3887C1192.49 55.8451 1192.81 54.4035 1194.08 53.2823C1194.9 52.5687 1195.19 51.5786 1195.16 50.4719C1195.1 48.608 1193.88 47.0353 1192.02 46.5256C1190.25 46.0305 1188.31 46.8169 1187.35 48.4187C1186.34 50.0641 1186.47 51.9717 1187.86 53.326C1188.96 54.4035 1189.39 55.6558 1189.3 57.0974C1189.17 59.2089 1188.96 61.3203 1188.76 63.4318C1188.66 64.4802 1188.86 64.7132 1190 64.5676C1190 63.8104 1190.01 63.0532 1190 62.2814C1189.98 61.5824 1190.39 61.4805 1190.96 61.4805C1191.53 61.4805 1191.95 61.5533 1191.92 62.2668C1191.85 63.0386 1191.88 63.8104 1191.88 64.553Z" fill="white"/>
<path d="M1183.8 53.4717C1183.24 53.3115 1182.8 53.2096 1182.36 53.0785C1178.32 51.899 1174.29 50.7195 1170.25 49.5255C1170.03 49.4672 1169.77 49.409 1169.64 49.2634C1169.49 49.1032 1169.39 48.812 1169.45 48.6227C1169.5 48.4479 1169.77 48.2877 1169.97 48.2149C1170.12 48.1712 1170.32 48.2586 1170.48 48.3169C1174.84 49.5837 1179.21 50.8652 1183.57 52.132C1183.97 52.2485 1184.36 52.3941 1184.24 52.8892C1184.23 53.1222 1183.95 53.297 1183.8 53.4717Z" fill="white"/>
<path d="M1138.53 113.746C1138.49 113.345 1138.32 113.034 1138.02 112.812C1137.72 112.59 1137.31 112.479 1136.79 112.479C1136.44 112.479 1136.14 112.528 1135.9 112.628C1135.66 112.724 1135.47 112.858 1135.34 113.031C1135.22 113.203 1135.16 113.398 1135.16 113.617C1135.15 113.799 1135.19 113.959 1135.27 114.094C1135.36 114.23 1135.47 114.348 1135.62 114.447C1135.77 114.544 1135.94 114.628 1136.14 114.701C1136.34 114.771 1136.54 114.83 1136.77 114.88L1137.68 115.099C1138.13 115.198 1138.53 115.331 1138.9 115.496C1139.28 115.662 1139.6 115.866 1139.87 116.108C1140.14 116.35 1140.35 116.635 1140.5 116.963C1140.65 117.291 1140.73 117.667 1140.73 118.092C1140.73 118.715 1140.57 119.255 1140.26 119.712C1139.95 120.166 1139.49 120.519 1138.9 120.771C1138.32 121.02 1137.61 121.144 1136.78 121.144C1135.96 121.144 1135.24 121.018 1134.63 120.766C1134.03 120.514 1133.55 120.142 1133.21 119.648C1132.87 119.151 1132.7 118.536 1132.68 117.803H1134.76C1134.79 118.145 1134.88 118.43 1135.06 118.658C1135.23 118.884 1135.47 119.054 1135.76 119.17C1136.05 119.283 1136.39 119.339 1136.76 119.339C1137.12 119.339 1137.44 119.286 1137.71 119.18C1137.98 119.074 1138.19 118.927 1138.34 118.738C1138.49 118.549 1138.56 118.332 1138.56 118.087C1138.56 117.858 1138.49 117.666 1138.36 117.51C1138.22 117.354 1138.03 117.222 1137.77 117.112C1137.52 117.003 1137.2 116.903 1136.83 116.814L1135.72 116.536C1134.86 116.327 1134.19 116 1133.69 115.556C1133.19 115.112 1132.95 114.514 1132.95 113.761C1132.95 113.145 1133.11 112.606 1133.44 112.146C1133.78 111.685 1134.23 111.325 1134.82 111.067C1135.4 110.808 1136.06 110.679 1136.81 110.679C1137.56 110.679 1138.22 110.808 1138.78 111.067C1139.35 111.325 1139.79 111.685 1140.11 112.146C1140.42 112.606 1140.58 113.14 1140.59 113.746H1138.53ZM1142.18 121V110.818H1149.04V112.593H1144.33V115.019H1148.69V116.794H1144.33V119.225H1149.06V121H1142.18ZM1150.75 121V110.818H1154.77C1155.54 110.818 1156.2 110.956 1156.74 111.231C1157.29 111.503 1157.7 111.889 1157.99 112.389C1158.28 112.886 1158.42 113.471 1158.42 114.144C1158.42 114.82 1158.27 115.402 1157.98 115.889C1157.69 116.373 1157.27 116.744 1156.72 117.003C1156.16 117.261 1155.5 117.391 1154.72 117.391H1152.03V115.661H1154.37C1154.78 115.661 1155.12 115.604 1155.39 115.491C1155.66 115.379 1155.87 115.21 1156 114.984C1156.14 114.759 1156.2 114.479 1156.2 114.144C1156.2 113.806 1156.14 113.521 1156 113.289C1155.87 113.057 1155.66 112.881 1155.39 112.762C1155.12 112.639 1154.77 112.578 1154.36 112.578H1152.91V121H1150.75ZM1156.25 116.366L1158.78 121H1156.41L1153.93 116.366H1156.25ZM1162.09 110.818V121H1159.94V110.818H1162.09ZM1170.62 114.109C1170.55 113.867 1170.45 113.654 1170.32 113.468C1170.2 113.279 1170.04 113.12 1169.86 112.991C1169.68 112.858 1169.48 112.757 1169.24 112.688C1169.02 112.618 1168.76 112.583 1168.48 112.583C1167.96 112.583 1167.51 112.712 1167.11 112.971C1166.72 113.229 1166.42 113.606 1166.2 114.099C1165.98 114.59 1165.87 115.19 1165.87 115.899C1165.87 116.608 1165.98 117.212 1166.19 117.709C1166.41 118.206 1166.71 118.585 1167.11 118.847C1167.5 119.106 1167.97 119.235 1168.5 119.235C1168.99 119.235 1169.41 119.149 1169.75 118.977C1170.1 118.801 1170.36 118.554 1170.55 118.236C1170.73 117.918 1170.83 117.541 1170.83 117.107L1171.26 117.172H1168.64V115.551H1172.9V116.834C1172.9 117.729 1172.71 118.498 1172.33 119.141C1171.95 119.78 1171.43 120.274 1170.77 120.622C1170.11 120.967 1169.35 121.139 1168.49 121.139C1167.54 121.139 1166.7 120.929 1165.98 120.508C1165.26 120.084 1164.69 119.482 1164.29 118.703C1163.89 117.921 1163.69 116.993 1163.69 115.919C1163.69 115.094 1163.81 114.358 1164.04 113.712C1164.29 113.062 1164.62 112.512 1165.06 112.061C1165.49 111.61 1166 111.267 1166.57 111.032C1167.15 110.797 1167.78 110.679 1168.45 110.679C1169.03 110.679 1169.56 110.763 1170.06 110.933C1170.56 111.098 1171 111.334 1171.38 111.638C1171.77 111.943 1172.09 112.306 1172.33 112.727C1172.58 113.145 1172.73 113.606 1172.8 114.109H1170.62ZM1174.52 121V110.818H1178.53C1179.3 110.818 1179.96 110.956 1180.5 111.231C1181.05 111.503 1181.46 111.889 1181.75 112.389C1182.04 112.886 1182.18 113.471 1182.18 114.144C1182.18 114.82 1182.04 115.402 1181.74 115.889C1181.45 116.373 1181.03 116.744 1180.48 117.003C1179.93 117.261 1179.26 117.391 1178.48 117.391H1175.79V115.661H1178.13C1178.54 115.661 1178.88 115.604 1179.15 115.491C1179.43 115.379 1179.63 115.21 1179.76 114.984C1179.9 114.759 1179.96 114.479 1179.96 114.144C1179.96 113.806 1179.9 113.521 1179.76 113.289C1179.63 113.057 1179.42 112.881 1179.15 112.762C1178.88 112.639 1178.53 112.578 1178.12 112.578H1176.67V121H1174.52ZM1180.01 116.366L1182.54 121H1180.17L1177.69 116.366H1180.01ZM1185.46 121H1183.15L1186.67 110.818H1189.44L1192.95 121H1190.64L1188.09 113.145H1188.01L1185.46 121ZM1185.31 116.998H1190.76V118.678H1185.31V116.998ZM1194.18 121V110.818H1200.92V112.593H1196.33V115.019H1200.47V116.794H1196.33V121H1194.18ZM1204.52 110.818V121H1202.37V110.818H1204.52ZM1202.69 109.834L1203.74 107.572H1205.7L1204.19 109.834H1202.69ZM1208.04 121H1205.74L1209.25 110.818H1212.03L1215.54 121H1213.23L1210.68 113.145H1210.6L1208.04 121ZM1207.9 116.998H1213.35V118.678H1207.9V116.998Z" fill="#1C2D46"/>
</svg>
