<svg width="398" height="414" viewBox="0 0 398 414" fill="none" xmlns="http://www.w3.org/2000/svg">
<path fill-rule="evenodd" clip-rule="evenodd" d="M295.737 289.812H271.212V265.286H258.949V401.71H147.664V265.286H135.401V289.812H110.263V249.345L143.985 215.929H172.803C175.562 230.031 188.131 240.454 202.847 240.454C217.562 240.454 230.131 229.724 232.891 215.929H262.015L295.737 249.345V289.812ZM267.533 203.666H221.547V209.797C221.547 219.914 213.27 228.192 203.153 228.192C193.037 228.192 184.759 219.914 184.759 209.797V203.666H138.774L98 244.133V302.075H135.401V413.666H271.212V302.075H308V244.133L267.533 203.666Z" fill="#45ACB4"/>
<path fill-rule="evenodd" clip-rule="evenodd" d="M172.187 363.695V351.432H159.924V375.958H184.449V363.695H172.187Z" fill="#45ACB4"/>
<path fill-rule="evenodd" clip-rule="evenodd" d="M159.924 289.812V314.644H172.187V302.075H184.449V289.812H159.924Z" fill="#45ACB4"/>
<path d="M172.187 326.907H159.924V339.17H172.187V326.907Z" fill="#45ACB4"/>
<path fill-rule="evenodd" clip-rule="evenodd" d="M221.551 289.812V302.075H233.814V314.644H246.076V289.812H221.551Z" fill="#45ACB4"/>
<path fill-rule="evenodd" clip-rule="evenodd" d="M233.814 351.432V363.695H221.551V375.958H246.076V351.432H233.814Z" fill="#45ACB4"/>
<path d="M246.076 326.907H233.813V339.17H246.076V326.907Z" fill="#45ACB4"/>
<path d="M208.977 289.812H196.714V302.075H208.977V289.812Z" fill="#45ACB4"/>
<path d="M208.977 363.695H196.714V375.958H208.977V363.695Z" fill="#45ACB4"/>
<path fill-rule="evenodd" clip-rule="evenodd" d="M74.0532 127.789V137.235H83.1212V146.303H64.6074V127.789H74.0532Z" fill="#EDDA6A"/>
<path fill-rule="evenodd" clip-rule="evenodd" d="M129.974 137.235V127.789H139.42V146.303H120.906V137.235H129.974Z" fill="#EDDA6A"/>
<path d="M111.838 137.235H92.9463V146.303H111.838V137.235Z" fill="#EDDA6A"/>
<path fill-rule="evenodd" clip-rule="evenodd" d="M139.42 72.248V90.7619H129.974V81.6939H120.906V72.248H139.42Z" fill="#EDDA6A"/>
<path fill-rule="evenodd" clip-rule="evenodd" d="M83.1212 72.248V81.6939H74.0532V90.7619H64.6074V72.248H83.1212Z" fill="#EDDA6A"/>
<path d="M111.838 72.248H92.9463V81.316H111.838V72.248Z" fill="#EDDA6A"/>
<path d="M139.043 100.208H129.975V118.721H139.043V100.208Z" fill="#EDDA6A"/>
<path d="M73.6754 100.208H64.6074V118.721H73.6754V100.208Z" fill="#EDDA6A"/>
<path fill-rule="evenodd" clip-rule="evenodd" d="M43.4508 136.857L46.0956 137.991V127.789C29.471 119.477 18.5138 102.097 18.5138 83.205C18.5138 77.1597 23.4256 72.2478 29.471 72.2478H46.4735V63.1798H29.471C18.5138 63.1798 9.44582 72.2478 9.44582 83.205C9.06799 106.253 22.67 127.411 43.4508 136.857ZM46.0956 81.6936H29.471C28.7153 81.6936 27.9596 82.4493 27.9596 83.205C27.9596 97.1848 35.1385 110.031 46.4735 117.21V81.6936H46.0956ZM55.5414 151.215C55.5414 158.772 61.5868 165.195 69.5213 165.195H134.886C142.443 165.195 148.866 159.149 148.866 151.215V53.734H55.5414V151.215ZM29.471 53.734H46.4735V44.666H157.934V151.215C157.934 164.061 147.733 174.263 134.886 174.263H69.5213C56.6749 174.263 46.4735 164.061 46.4735 151.215V148.57L39.6725 145.547C27.9596 139.88 17.7582 131.19 10.9572 120.233C3.77833 108.898 0 96.4291 0 83.205C0 66.9582 13.2242 53.734 29.471 53.734Z" fill="#EDDA6A"/>
<path fill-rule="evenodd" clip-rule="evenodd" d="M384.625 115.021H358.411V27.819C373.391 31.0289 384.625 44.4035 384.625 60.4529V115.021ZM345.037 115.021H226.271V59.9179C226.271 41.7286 241.25 26.7491 259.44 26.7491H345.572V115.021H345.037ZM305.448 160.494C299.028 166.914 290.469 170.659 281.374 170.659H187.752C186.147 170.659 185.612 169.589 185.077 169.054C185.077 168.519 184.542 167.449 185.612 166.379L221.456 128.931H335.407L305.448 160.494ZM398 59.9179C398 34.2388 377.136 13.3745 351.457 13.3745H318.288V0H292.074V13.3745H258.905C233.226 13.3745 212.361 34.2388 212.361 59.9179V119.301L176.518 156.75C172.238 161.564 170.633 167.984 173.308 173.869C175.983 179.754 181.332 183.499 187.752 183.499H281.909C294.214 183.499 306.518 178.149 315.078 169.054L354.667 127.861H397.465V59.9179H398Z" fill="#EA5534"/>
<path fill-rule="evenodd" clip-rule="evenodd" d="M258.372 95.7617V86.667H247.672V104.856H269.071V95.7617H258.372Z" fill="#EA5534"/>
<path fill-rule="evenodd" clip-rule="evenodd" d="M247.672 40.6582V58.8476H258.372V49.7529H269.071V40.6582H247.672Z" fill="#EA5534"/>
<path d="M258.372 68.4775H247.672V77.5722H258.372V68.4775Z" fill="#EA5534"/>
<path fill-rule="evenodd" clip-rule="evenodd" d="M301.703 40.6582V49.7529H312.403V58.8476H323.102V40.6582H301.703Z" fill="#EA5534"/>
<path fill-rule="evenodd" clip-rule="evenodd" d="M312.403 86.667V95.7617H301.703V104.856H323.102V86.667H312.403Z" fill="#EA5534"/>
<path d="M323.101 68.4775H312.401V77.5722H323.101V68.4775Z" fill="#EA5534"/>
<path d="M290.471 40.6582H279.771V49.7529H290.471V40.6582Z" fill="#EA5534"/>
<path d="M290.471 95.7617H279.771V104.856H290.471V95.7617Z" fill="#EA5534"/>
</svg>
