<svg width="40" height="40" viewBox="0 0 40 40" fill="none" xmlns="http://www.w3.org/2000/svg">
<path d="M20 0C16.0444 0 12.1776 1.17298 8.8886 3.37061C5.59962 5.56823 3.03617 8.69181 1.52242 12.3463C0.00866572 16.0009 -0.387401 20.0222 0.384303 23.9018C1.15601 27.7814 3.06082 31.3451 5.85787 34.1421C8.65492 36.9392 12.2186 38.844 16.0982 39.6157C19.9778 40.3874 23.9991 39.9913 27.6537 38.4776C31.3082 36.9638 34.4318 34.4004 36.6294 31.1114C38.827 27.8224 40 23.9556 40 20C39.9941 14.6975 37.8851 9.61381 34.1356 5.86436C30.3862 2.11491 25.3025 0.00588189 20 0ZM22.2222 35.3944V25.1852H25.9259C26.5153 25.1852 27.0805 24.9511 27.4973 24.5343C27.914 24.1176 28.1482 23.5523 28.1482 22.963C28.1482 22.3736 27.914 21.8084 27.4973 21.3916C27.0805 20.9749 26.5153 20.7407 25.9259 20.7407H22.2222V17.037C22.2222 16.4477 22.4564 15.8824 22.8731 15.4657C23.2898 15.0489 23.8551 14.8148 24.4444 14.8148H27.4074C27.9968 14.8148 28.562 14.5807 28.9788 14.1639C29.3955 13.7472 29.6296 13.182 29.6296 12.5926C29.6296 12.0032 29.3955 11.438 28.9788 11.0212C28.562 10.6045 27.9968 10.3704 27.4074 10.3704H24.4444C22.6763 10.3704 20.9806 11.0727 19.7304 12.323C18.4802 13.5732 17.7778 15.2689 17.7778 17.037V20.7407H14.0741C13.4847 20.7407 12.9195 20.9749 12.5027 21.3916C12.086 21.8084 11.8519 22.3736 11.8519 22.963C11.8519 23.5523 12.086 24.1176 12.5027 24.5343C12.9195 24.9511 13.4847 25.1852 14.0741 25.1852H17.7778V35.3944C13.8854 34.8326 10.3502 32.8173 7.8838 29.7541C5.41737 26.6909 4.20276 22.8071 4.48439 18.8845C4.76603 14.9618 6.523 11.2914 9.40173 8.61196C12.2805 5.9325 16.0673 4.44288 20 4.44288C23.9328 4.44288 27.7195 5.9325 30.5983 8.61196C33.477 11.2914 35.234 14.9618 35.5156 18.8845C35.7973 22.8071 34.5826 26.6909 32.1162 29.7541C29.6498 32.8173 26.1146 34.8326 22.2222 35.3944Z" fill="#45ACB4"/>
</svg>
