<svg width="53" height="39" viewBox="0 0 53 39" fill="none" xmlns="http://www.w3.org/2000/svg">
<path d="M30.8214 19.0552L22.4141 23.8594V14.251L30.8214 19.0552Z" fill="#45ACB4" stroke="#45ACB4" stroke-width="2.74527" stroke-linecap="round" stroke-linejoin="round"/>
<path d="M2 20.7547V17.3555C2 10.4005 2 6.9231 4.17509 4.68561C6.3502 2.44811 9.77458 2.35126 16.6233 2.15755C19.8687 2.06577 23.1837 2 26.0211 2C28.8585 2 32.1736 2.06577 35.4189 2.15755C42.2675 2.35126 45.692 2.44811 47.8671 4.68561C50.0422 6.9231 50.0422 10.4005 50.0422 17.3555V20.7547C50.0422 27.7095 50.0422 31.1871 47.8671 33.4244C45.692 35.662 42.2678 35.7588 35.4191 35.9526C32.1736 36.0444 28.8585 36.1102 26.0211 36.1102C23.1837 36.1102 19.8685 36.0444 16.6231 35.9526C9.77445 35.7588 6.35015 35.662 4.17506 33.4244C2 31.1871 2 27.7095 2 20.7547Z" stroke="#45ACB4" stroke-width="4"/>
</svg>
